<?xml version="1.0" encoding="UTF-8" standalone="no"?>
<!DOCTYPE svg PUBLIC "-//W3C//DTD SVG 1.1//EN" "http://www.w3.org/Graphics/SVG/1.1/DTD/svg11.dtd">
<svg xmlns="http://www.w3.org/2000/svg" version="1.1" viewBox="0.00 0.00 301.00 395.00">
<path fill="#d44537" d="
  M 75.71 131.56
  Q 75.62 131.42 70.83 129.34
  C 52.62 121.46 41.00 99.32 53.82 81.29
  C 61.96 69.86 73.42 62.64 85.53 55.32
  Q 94.06 50.16 102.21 44.50
  Q 114.29 36.12 116.62 34.29
  C 125.26 27.52 132.56 19.25 139.50 10.27
  Q 140.85 8.52 142.84 7.71
  A 0.30 0.29 -13.7 0 1 143.24 7.95
  Q 145.79 33.55 131.69 54.97
  Q 127.55 61.25 122.05 68.04
  C 116.63 74.73 116.13 84.31 124.84 88.54
  Q 129.82 90.95 135.69 92.79
  C 140.75 94.38 139.64 101.23 138.62 105.06
  Q 136.06 114.67 131.36 122.38
  A 0.70 0.69 -88.4 0 0 132.28 123.36
  Q 141.40 118.42 146.34 110.44
  Q 151.68 101.81 149.77 92.47
  A 1.91 1.90 -12.8 0 1 151.18 90.24
  Q 162.73 87.42 174.51 88.17
  Q 176.35 88.29 181.76 88.92
  C 195.42 90.53 207.47 96.88 216.86 107.18
  C 225.06 116.17 229.67 124.74 236.05 136.44
  Q 246.19 155.02 264.06 167.94
  C 272.84 174.29 284.99 180.75 291.84 190.11
  C 297.19 197.42 297.24 204.34 295.33 213.14
  Q 291.73 229.83 277.23 243.18
  Q 264.43 254.97 247.03 253.44
  Q 234.07 252.30 222.99 245.70
  A 0.50 0.49 -75.0 0 0 222.24 246.14
  Q 222.59 265.18 222.42 289.60
  Q 222.38 295.12 221.98 298.42
  C 221.49 302.56 221.61 306.11 221.04 310.13
  Q 219.05 324.13 217.56 329.29
  Q 214.49 339.90 212.55 346.30
  Q 212.09 347.81 211.28 348.88
  A 0.42 0.42 0.0 0 1 210.52 348.63
  Q 210.47 324.22 210.45 264.00
  C 210.45 254.17 209.30 245.30 200.34 239.97
  C 195.35 237.00 185.90 237.70 179.17 237.89
  A 0.59 0.59 0.0 0 1 178.57 237.31
  C 178.43 230.09 177.15 224.74 169.68 222.07
  Q 163.36 219.82 157.76 223.53
  C 152.87 226.77 151.83 231.26 152.07 236.80
  A 0.64 0.64 0.0 0 1 151.43 237.47
  L 97.23 237.47
  A 0.54 0.54 0.0 0 1 96.69 236.96
  L 96.41 231.10
  A 1.65 0.84 -72.0 0 0 96.38 230.91
  C 94.03 223.12 85.40 219.06 77.89 222.85
  Q 70.22 226.73 70.82 236.74
  A 0.83 0.83 0.0 0 1 69.97 237.62
  Q 66.51 237.54 57.89 237.66
  Q 51.40 237.74 47.90 239.58
  Q 40.74 243.33 38.54 251.45
  Q 37.69 254.60 37.72 264.51
  Q 37.88 313.42 37.63 346.60
  A 0.29 0.29 0.0 0 1 37.11 346.79
  Q 33.27 342.18 30.76 338.00
  Q 15.07 311.83 10.87 281.82
  Q 7.52 257.96 12.67 234.11
  Q 20.50 197.88 47.51 171.26
  A 2.93 2.92 28.5 0 1 50.18 170.48
  Q 69.26 174.55 87.98 167.39
  Q 91.05 166.22 92.72 165.18
  A 0.25 0.25 0.0 0 0 92.66 164.72
  Q 92.51 164.67 86.70 165.60
  Q 82.57 166.27 71.27 166.50
  C 52.77 166.88 37.16 159.90 28.07 143.21
  A 0.99 0.97 50.8 0 1 28.17 142.13
  Q 29.30 140.76 32.11 139.55
  C 39.69 136.28 48.92 134.37 58.61 133.86
  Q 60.91 133.74 73.50 132.79
  Q 73.79 132.77 75.48 132.22
  A 0.44 0.43 64.7 0 0 75.71 131.56
  Z
  M 206.57 157.11
  C 194.57 151.51 183.33 145.34 173.21 136.87
  A 1.19 1.18 -61.1 0 0 171.32 137.42
  Q 169.70 142.48 170.26 147.75
  C 171.27 157.17 177.12 161.96 186.54 161.98
  Q 196.91 162.00 206.57 157.46
  A 0.19 0.19 0.0 0 0 206.57 157.11
  Z
  M 274.24 195.29
  C 265.31 191.75 254.56 192.12 246.76 198.23
  C 240.35 203.24 238.88 212.85 243.80 219.41
  C 248.79 226.07 259.71 228.23 267.70 227.94
  A 0.32 0.32 0.0 0 0 267.87 227.36
  Q 265.14 225.48 263.23 224.27
  C 258.20 221.07 251.93 214.11 251.36 207.68
  A 3.25 3.25 0.0 0 1 252.51 204.90
  C 255.57 202.35 259.14 199.82 263.40 198.66
  Q 267.16 197.63 271.26 196.18
  C 272.18 195.85 273.49 196.10 274.21 195.89
  A 0.32 0.32 0.0 0 0 274.24 195.29
  Z"
/>
<path fill="#d44537" d="
  M 212.65 90.59
  A 0.75 0.74 59.7 0 1 212.99 89.29
  Q 221.34 87.67 228.50 85.81
  Q 240.97 82.55 249.81 74.08
  C 257.52 66.69 258.35 57.40 256.33 47.43
  Q 254.61 38.95 251.71 31.75
  A 0.56 0.56 0.0 0 1 252.45 31.03
  C 264.57 36.32 273.04 47.46 277.42 59.82
  Q 283.10 75.85 278.72 91.63
  C 274.13 108.09 260.97 120.97 245.93 128.82
  A 1.76 1.75 -25.9 0 1 243.52 127.99
  Q 235.75 110.72 220.58 97.39
  Q 217.94 95.07 212.65 90.59
  Z"
/>
<rect fill="#8b473e" x="-7.16" y="-16.73" transform="translate(83.62,244.78) rotate(-0.1)" width="14.32" height="33.46" rx="6.67"/>
<rect fill="#8b473e" x="-7.44" y="-16.72" transform="translate(165.15,244.66) rotate(-0.2)" width="14.88" height="33.44" rx="7.09"/>
<path fill="#d44537" d="
  M 151.39 249.08
  A 0.80 0.79 0.4 0 1 152.19 249.88
  C 152.11 254.11 152.02 258.21 153.89 261.58
  C 159.04 270.84 172.56 270.28 177.31 260.69
  C 178.65 257.99 178.45 253.27 178.42 249.83
  A 0.73 0.73 0.0 0 1 179.15 249.10
  L 190.60 249.10
  A 2.91 2.87 -32.4 0 1 191.80 249.36
  Q 195.62 251.13 197.43 254.47
  Q 198.55 256.55 198.55 261.73
  Q 198.55 344.09 198.59 355.50
  C 198.61 360.68 198.99 366.50 197.63 370.75
  Q 194.95 379.14 186.48 382.68
  Q 182.90 384.17 176.77 384.00
  Q 173.60 383.92 66.06 383.96
  A 4.89 4.85 -37.6 0 1 64.86 383.81
  Q 55.61 381.54 51.97 373.10
  Q 50.50 369.69 50.51 362.18
  Q 50.57 313.33 50.55 258.74
  A 2.96 2.61 -41.3 0 1 50.64 258.04
  C 51.60 254.11 54.44 249.48 58.91 249.18
  Q 63.29 248.89 69.81 249.11
  A 1.33 1.33 0.0 0 1 71.10 250.40
  L 71.39 258.82
  A 2.71 2.68 -57.9 0 0 71.60 259.76
  Q 74.62 267.05 81.16 267.95
  C 89.68 269.11 96.78 263.74 96.59 254.78
  Q 96.54 252.17 96.64 249.80
  A 0.76 0.75 1.2 0 1 97.40 249.08
  L 151.39 249.08
  Z
  M 124.92 368.18
  Q 169.59 368.19 173.53 368.14
  Q 177.48 368.08 178.61 367.49
  C 183.32 364.98 183.45 362.33 183.46 356.34
  Q 183.54 310.40 183.43 281.78
  A 1.61 1.61 0.0 0 0 181.83 280.18
  Q 178.14 280.17 124.93 280.16
  Q 71.72 280.15 68.04 280.17
  A 1.61 1.61 0.0 0 0 66.44 281.76
  Q 66.32 310.38 66.38 356.32
  C 66.39 362.31 66.52 364.96 71.23 367.47
  Q 72.36 368.06 76.31 368.12
  Q 80.25 368.18 124.92 368.18
  Z"
/>
<path fill="#d44537" d="
  M 115.46 333.90
  A 1.03 1.03 0.0 0 0 116.97 333.86
  Q 119.89 330.58 119.98 330.48
  Q 138.28 311.46 151.36 299.13
  Q 155.21 295.50 160.92 297.60
  A 3.03 2.83 -12.4 0 1 161.83 298.14
  Q 165.77 301.68 164.95 306.08
  Q 164.47 308.61 159.87 313.17
  Q 143.65 329.26 121.66 351.41
  Q 119.92 353.17 118.13 354.64
  A 2.40 2.39 41.4 0 1 115.34 354.81
  Q 114.05 353.99 112.63 352.64
  Q 101.32 341.88 90.63 331.63
  C 87.64 328.76 85.03 325.20 87.10 321.22
  C 89.43 316.75 94.68 314.20 98.83 318.00
  Q 109.50 327.78 115.46 333.90
  Z"
/>
</svg>
